<svg width="20" height="20" viewBox="0 0 20 20" fill="none" xmlns="http://www.w3.org/2000/svg">
<path d="M0 10C0 4.47715 4.47715 0 10 0V0C15.5228 0 20 4.47715 20 10V18.6154C20 19.3801 19.3801 20 18.6154 20H10C4.47715 20 0 15.5228 0 10V10Z" fill="#007D43"/>
<path d="M9.96547 6.04605C10.0016 5.78194 10.3834 5.78194 10.4194 6.04605V6.04605C10.6979 8.08424 12.3007 9.68699 14.3389 9.96547V9.96547C14.603 10.0016 14.603 10.3834 14.3389 10.4194V10.4194C12.3007 10.6979 10.6979 12.3007 10.4194 14.3389V14.3389C10.3834 14.603 10.0016 14.603 9.96547 14.3389V14.3389C9.68699 12.3007 8.08424 10.6979 6.04605 10.4194V10.4194C5.78194 10.3834 5.78194 10.0016 6.04605 9.96547V9.96547C8.08424 9.68699 9.68699 8.08424 9.96547 6.04605V6.04605Z" fill="white"/>
</svg>
